<svg width="255" height="164" viewBox="0 0 255 164" fill="none" xmlns="http://www.w3.org/2000/svg">
<rect width="255" height="164" fill="#F9C096"/>
<rect width="255" height="164" fill="black" fill-opacity="0.2"/>
<path d="M92.6626 105.475C97.4084 101.846 102.713 98.9845 108.575 96.8907C114.438 94.797 120.579 93.7501 127 93.7501C133.421 93.7501 139.563 94.797 145.425 96.8907C151.288 98.9845 156.592 101.846 161.338 105.475C164.595 101.66 167.13 97.3327 168.945 92.4938C170.759 87.6549 171.667 82.4904 171.667 77.0001C171.667 64.6237 167.316 54.0851 158.616 45.3845C149.915 36.6838 139.376 32.3334 127 32.3334C114.624 32.3334 104.085 36.6838 95.3845 45.3845C86.6838 54.0851 82.3334 64.6237 82.3334 77.0001C82.3334 82.4904 83.2407 87.6549 85.0553 92.4938C86.8699 97.3327 89.4056 101.66 92.6626 105.475ZM127 82.5834C121.51 82.5834 116.88 80.699 113.112 76.9303C109.343 73.1615 107.458 68.532 107.458 63.0417C107.458 57.5515 109.343 52.922 113.112 49.1532C116.88 45.3845 121.51 43.5001 127 43.5001C132.49 43.5001 137.12 45.3845 140.889 49.1532C144.657 52.922 146.542 57.5515 146.542 63.0417C146.542 68.532 144.657 73.1615 140.889 76.9303C137.12 80.699 132.49 82.5834 127 82.5834ZM127 132.833C119.276 132.833 112.018 131.368 105.225 128.437C98.432 125.505 92.523 121.527 87.498 116.502C82.473 111.477 78.4949 105.568 75.5636 98.7751C72.6324 91.982 71.1667 84.7237 71.1667 77.0001C71.1667 69.2765 72.6324 62.0181 75.5636 55.2251C78.4949 48.432 82.473 42.523 87.498 37.498C92.523 32.473 98.432 28.4949 105.225 25.5636C112.018 22.6324 119.276 21.1667 127 21.1667C134.724 21.1667 141.982 22.6324 148.775 25.5636C155.568 28.4949 161.477 32.473 166.502 37.498C171.527 42.523 175.505 48.432 178.437 55.2251C181.368 62.0181 182.833 69.2765 182.833 77.0001C182.833 84.7237 181.368 91.982 178.437 98.7751C175.505 105.568 171.527 111.477 166.502 116.502C161.477 121.527 155.568 125.505 148.775 128.437C141.982 131.368 134.724 132.833 127 132.833Z" fill="#1D1B20"/>
</svg>
