<svg width="281" height="300" viewBox="0 0 281 300" fill="none" xmlns="http://www.w3.org/2000/svg">
<path opacity="0.25" d="M142.685 227.097C138.456 241.508 135.872 248.759 130.395 253.026C119.578 261.451 107.093 256.959 97.34 245.402C93.0407 240.308 90.2716 237.015 87.3069 225.551C87.3069 225.551 87.3772 216.572 76.268 204.34C66.0046 191.254 56.7873 189.504 56.7873 189.504C45.7274 184.345 43.0942 181.141 38.8004 176.053C29.0471 164.497 27.0405 151.832 37.8637 143.401C43.341 139.135 51.2619 138.22 66.8164 137.215C66.8164 137.215 97.2227 134.535 115.764 138.294C129.152 141.017 138.892 152.606 138.892 152.606L141.904 156.175C141.904 156.175 152.126 168.226 151.707 180.882C151.079 199.008 142.682 227.1 142.685 227.097ZM129.75 115.889C139.947 127.971 162.506 126.63 180.137 112.897C197.768 99.1635 203.797 78.2364 193.6 66.1544C183.403 54.0724 160.844 55.4135 143.213 69.1466C125.582 82.8796 119.553 103.807 129.75 115.889ZM81.1376 119.008C92.5034 124.914 107.87 116.311 115.457 99.7883C123.044 83.2655 119.984 65.0827 108.622 59.1746C97.2589 53.2666 81.8923 61.875 74.3025 78.3946C66.7155 94.9174 69.7779 113.098 81.1376 119.008ZM172.674 166.747C182.871 178.829 205.433 177.492 223.063 163.758C240.694 150.025 246.721 129.095 236.524 117.013C226.327 104.931 203.767 106.272 186.137 120.005C168.506 133.738 162.477 154.665 172.674 166.747ZM226.072 198.331C222.404 186.424 204.521 179.793 186.122 183.511C167.723 187.229 155.785 199.894 159.453 211.801C163.124 223.706 181.007 230.337 199.403 226.621C217.799 222.905 229.74 210.238 226.072 198.331Z" fill="#F9C096"/>
</svg>
