<svg width="249" height="276" viewBox="0 0 249 276" fill="none" xmlns="http://www.w3.org/2000/svg">
<path opacity="0.25" d="M119.573 209.029C122.836 222.185 124.879 228.79 129.559 232.554C138.803 239.989 149.92 235.461 158.86 224.506C162.8 219.677 165.338 216.556 168.307 205.895C168.307 205.895 168.528 197.618 178.681 185.998C188.117 173.617 196.275 171.719 196.275 171.719C206.161 166.622 208.577 163.587 212.512 158.764C221.452 147.809 223.615 136.07 214.367 128.632C209.686 124.867 202.751 124.268 189.109 123.822C189.109 123.822 162.462 122.29 146.043 126.327C134.187 129.251 125.259 140.235 125.259 140.235L122.498 143.618C122.498 143.618 113.131 155.045 113.101 166.699C113.08 183.392 119.575 209.031 119.573 209.029ZM134.455 106.102C125.109 117.556 105.319 117.015 90.2525 104.898C75.1861 92.7811 70.5462 73.6736 79.892 62.22C89.2379 50.7664 109.028 51.3068 124.095 63.4238C139.161 75.5409 143.801 94.6484 134.455 106.102ZM177.093 107.478C166.915 113.273 153.677 105.816 147.529 90.8173C141.38 75.8183 144.644 58.9604 154.819 53.1629C164.995 47.3654 178.233 54.8277 184.384 69.8236C190.532 84.8226 187.266 101.678 177.093 107.478ZM95.1141 154.315C85.7682 165.769 65.9754 165.232 50.909 153.115C35.8427 140.998 31.2053 121.887 40.5511 110.433C49.8969 98.9798 69.6873 99.5201 84.7536 111.637C99.82 123.754 104.46 142.862 95.1141 154.315ZM47.1729 185.081C50.7733 173.99 66.7041 167.325 82.7619 170.185C98.8196 173.046 108.915 184.354 105.314 195.444C101.711 206.533 85.7806 213.198 69.7255 210.34C53.6704 207.482 43.5726 196.172 47.1729 185.081Z" fill="#F3AB75"/>
</svg>
