<svg width="17" height="19" viewBox="0 0 17 19" fill="none" xmlns="http://www.w3.org/2000/svg">
<path d="M15.0079 12.6677C16.0033 13.6665 16.4886 14.206 16.6385 14.8453C16.9346 16.1078 16.1514 16.9189 14.9029 17.187C14.3525 17.3051 13.9971 17.3807 12.9884 17.1009C12.9884 17.1009 12.2803 16.6871 10.9318 17.0347C9.5448 17.2748 9.09053 17.9448 9.09053 17.9448C8.30343 18.6098 7.95969 18.6783 7.41004 18.7964C6.1615 19.0644 5.09058 18.6521 4.79429 17.3889C4.64435 16.7496 4.84333 16.0639 5.2967 14.7534C5.2967 14.7534 6.12631 12.159 7.05892 10.822C7.73303 9.857 8.98366 9.59151 8.98366 9.59151L9.36926 9.50872C9.36926 9.50872 10.6731 9.22506 11.6601 9.83421C13.0729 10.7089 15.0079 12.6677 15.0079 12.6677ZM5.76517 8.66662C7.07052 8.38638 7.73724 6.49091 7.25458 4.43317C6.77193 2.37543 5.32259 0.934263 4.01724 1.21451C2.7119 1.49475 2.04518 3.39022 2.52783 5.44796C3.01048 7.5057 4.45983 8.94687 5.76517 8.66662ZM4.34665 12.7615C5.20332 12.1056 5.04902 10.4651 4.00154 9.09737C2.95407 7.72963 1.4105 7.15224 0.553751 7.80781C-0.303001 8.46338 -0.148271 10.1041 0.898855 11.472C1.94634 12.8397 3.48981 13.4167 4.34665 12.7615ZM11.26 7.48694C12.5653 7.2067 13.2324 5.31115 12.7497 3.25342C12.2671 1.19568 10.8174 -0.245416 9.51203 0.0348291C8.20669 0.315074 7.53997 2.21054 8.02262 4.26828C8.50527 6.32602 9.95462 7.76719 11.26 7.48694ZM15.5884 4.57964C14.5206 4.33688 13.3832 5.48984 13.0471 7.15499C12.711 8.82014 13.3042 10.3664 14.372 10.6092C15.4398 10.8516 16.5771 9.6986 16.9133 8.0338C17.2495 6.36901 16.6562 4.8224 15.5884 4.57964Z" fill="#F8B687"/>
</svg>
