<svg width="23" height="27" viewBox="0 0 23 27" fill="none" xmlns="http://www.w3.org/2000/svg">
<path d="M11.4821 0.000140226C10.8487 0.0100382 10.343 0.530798 10.3516 1.1641L10.3516 1.73823L4.03563 1.73823C3.72837 1.73406 3.43225 1.85319 3.21349 2.06899C2.99472 2.28478 2.87157 2.57923 2.87157 2.88649L1.16473 2.88649C0.75058 2.88064 0.365372 3.09821 0.156588 3.45588C-0.0521959 3.81356 -0.0521959 4.25594 0.156588 4.61361C0.365372 4.9713 0.75058 5.18886 1.16473 5.183L21.8353 5.183C22.2494 5.18886 22.6346 4.97129 22.8434 4.61361C23.0522 4.25593 23.0522 3.81355 22.8434 3.45588C22.6346 3.0982 22.2494 2.88064 21.8353 2.88649L20.1284 2.88649C20.1284 2.57923 20.0053 2.28477 19.7865 2.06899C19.5678 1.85319 19.2716 1.73406 18.9644 1.73823L12.6484 1.73823L12.6484 1.1641C12.6526 0.853724 12.531 0.554843 12.3113 0.33557C12.0916 0.116287 11.7925 -0.00470544 11.4821 0.000140226ZM1.16471 7.47954L3.2237 24.9726C3.3592 26.1289 4.33803 27 5.50249 27L17.4975 27C18.6619 27 19.6396 26.1289 19.7763 24.9726L21.8353 7.47956L1.16471 7.47954Z" fill="#F9F5F0"/>
</svg>
