<svg width="32" height="37" viewBox="0 0 32 37" fill="none" xmlns="http://www.w3.org/2000/svg">
<path d="M15.6645 0.000191321C14.8004 0.013696 14.1105 0.72421 14.1223 1.58827L14.1223 2.37161L5.50565 2.37161C5.08646 2.36592 4.68248 2.52846 4.38403 2.82289C4.08558 3.11731 3.91757 3.51905 3.91757 3.93827L1.58899 3.93827C1.02399 3.93028 0.498462 4.22713 0.213627 4.71514C-0.0712088 5.20315 -0.0712088 5.80673 0.213627 6.29473C0.498462 6.78274 1.02399 7.07958 1.58899 7.07159L29.789 7.07159C30.354 7.07958 30.8795 6.78273 31.1643 6.29473C31.4492 5.80671 31.4492 5.20314 31.1643 4.71514C30.8795 4.22712 30.354 3.93028 29.789 3.93827L27.4604 3.93827C27.4604 3.51905 27.2924 3.11729 26.9939 2.82289C26.6955 2.52846 26.2915 2.36592 25.8723 2.37161L17.2556 2.37161L17.2556 1.58827C17.2614 1.1648 17.0956 0.757016 16.7958 0.457846C16.4961 0.15866 16.088 -0.00642001 15.6645 0.000191321ZM1.58897 10.2049L4.39796 34.0721C4.58282 35.6498 5.9182 36.8383 7.50682 36.8383L23.8711 36.8383C25.4597 36.8383 26.7936 35.6498 26.98 34.0721L29.789 10.205L1.58897 10.2049Z" fill="#843C06"/>
</svg>
