<svg width="24" height="24" viewBox="0 0 24 24" fill="none" xmlns="http://www.w3.org/2000/svg">
<circle cx="12" cy="8" r="3.25" stroke="#F9F5F0" stroke-width="1.5" stroke-linecap="round"/>
<path d="M15.0514 7.875C15.3498 7.35821 15.8413 6.98111 16.4177 6.82667C16.9941 6.67222 17.6082 6.75307 18.125 7.05144C18.6418 7.34981 19.0189 7.84125 19.1733 8.41766C19.3278 8.99406 19.2469 9.60821 18.9486 10.125C18.6502 10.6418 18.1587 11.0189 17.5823 11.1733C17.0059 11.3278 16.3918 11.2469 15.875 10.9486C15.3582 10.6502 14.9811 10.1587 14.8267 9.58234C14.6722 9.00594 14.7531 8.39179 15.0514 7.875L15.0514 7.875Z" stroke="#F9F5F0" stroke-width="1.5"/>
<path d="M5.05144 7.875C5.34981 7.35821 5.84125 6.98111 6.41766 6.82667C6.99406 6.67222 7.60821 6.75307 8.125 7.05144C8.64179 7.34981 9.01889 7.84125 9.17333 8.41766C9.32778 8.99406 9.24693 9.60821 8.94856 10.125C8.65019 10.6418 8.15875 11.0189 7.58234 11.1733C7.00594 11.3278 6.39179 11.2469 5.875 10.9486C5.35821 10.6502 4.98111 10.1587 4.82667 9.58234C4.67222 9.00594 4.75307 8.39179 5.05144 7.875L5.05144 7.875Z" stroke="#F9F5F0" stroke-width="1.5"/>
<path d="M16.9995 14L16.9995 13.25L16.9994 13.25L16.9995 14ZM20.7202 16.9043L21.4271 16.6537L21.4271 16.6536L20.7202 16.9043ZM16.8813 18L16.1461 18.1481L16.2673 18.75H16.8813V18ZM14.7827 14.7129L14.3291 14.1156L13.4623 14.774L14.3862 15.3495L14.7827 14.7129ZM16.9995 14V14.75C18.8045 14.75 19.6271 16.066 20.0134 17.155L20.7202 16.9043L21.4271 16.6536C20.9732 15.3741 19.7846 13.25 16.9995 13.25V14ZM20.7202 16.9043L20.0133 17.1549C20.0173 17.1662 20.0182 17.1731 20.0184 17.1758C20.0187 17.1785 20.0184 17.1797 20.0184 17.1799C20.0183 17.1803 20.0181 17.1814 20.0171 17.1836C20.016 17.1859 20.0139 17.1897 20.0099 17.1947C19.9931 17.2155 19.947 17.25 19.8667 17.25V18V18.75C20.8759 18.75 21.8363 17.8081 21.4271 16.6537L20.7202 16.9043ZM19.8667 18V17.25H16.8813V18V18.75H19.8667V18ZM16.8813 18L17.6166 17.8519C17.4041 16.7971 16.8192 15.0978 15.1793 14.0763L14.7827 14.7129L14.3862 15.3495C15.5102 16.0496 15.9666 17.2568 16.1461 18.1481L16.8813 18ZM14.7827 14.7129L15.2363 15.3102C15.6651 14.9845 16.2283 14.7501 16.9996 14.75L16.9995 14L16.9994 13.25C15.8914 13.2501 15.0114 13.5974 14.3291 14.1156L14.7827 14.7129Z" fill="#F9F5F0"/>
<path d="M7 14L7 13.25L6.99997 13.25L7 14ZM9.2168 14.7129L9.61341 15.3494L10.5373 14.7738L9.67034 14.1156L9.2168 14.7129ZM7.11914 18V18.75H7.73314L7.85437 18.1481L7.11914 18ZM4.13281 18L4.13273 18.75H4.13281V18ZM3.28027 16.9043L2.57342 16.6536L2.57341 16.6536L3.28027 16.9043ZM7 14V14.75C7.77115 14.75 8.3343 14.9845 8.76325 15.3102L9.2168 14.7129L9.67034 14.1156C8.98814 13.5976 8.10823 13.25 7 13.25V14ZM9.2168 14.7129L8.82018 14.0763C7.18052 15.098 6.59628 16.7976 6.38391 17.8519L7.11914 18L7.85437 18.1481C8.03395 17.2566 8.48987 16.0495 9.61341 15.3494L9.2168 14.7129ZM7.11914 18V17.25H4.13281V18V18.75H7.11914V18ZM4.13281 18L4.13289 17.25C4.05261 17.25 4.00687 17.2156 3.99037 17.1951C3.98644 17.1902 3.98434 17.1864 3.9833 17.1841C3.98229 17.182 3.98206 17.1808 3.98199 17.1804C3.98194 17.1802 3.98171 17.179 3.98195 17.1762C3.98218 17.1734 3.98307 17.1664 3.98713 17.155L3.28027 16.9043L2.57341 16.6536C2.1643 17.8071 3.12261 18.7499 4.13273 18.75L4.13281 18ZM3.28027 16.9043L3.98713 17.155C4.37347 16.0658 5.19526 14.7501 7.00003 14.75L7 14L6.99997 13.25C4.21486 13.2501 3.02716 15.3744 2.57342 16.6536L3.28027 16.9043Z" fill="#F9F5F0"/>
<path d="M12 14C15.5715 14 16.5919 16.5512 16.8834 18.0089C16.9917 18.5504 16.5523 19 16 19H8C7.44772 19 7.00829 18.5504 7.11659 18.0089C7.4081 16.5512 8.42846 14 12 14Z" stroke="#F9F5F0" stroke-width="1.5" stroke-linecap="round"/>
</svg>
