<svg width="56" height="56" viewBox="0 0 56 56" fill="none" xmlns="http://www.w3.org/2000/svg">
<circle cx="28" cy="28" r="28" fill="#843C06"/>
<path d="M16.5 38.125V35.375H19.25V25.75C19.25 23.8479 19.8229 22.1635 20.9688 20.6969C22.1146 19.2073 23.6042 18.2333 25.4375 17.775V16.8125C25.4375 16.2396 25.6323 15.7583 26.0219 15.3687C26.4344 14.9562 26.9271 14.75 27.5 14.75C28.0729 14.75 28.5542 14.9562 28.9438 15.3687C29.3563 15.7583 29.5625 16.2396 29.5625 16.8125V17.775C31.3958 18.2333 32.8854 19.2073 34.0312 20.6969C35.1771 22.1635 35.75 23.8479 35.75 25.75V35.375H38.5V38.125H16.5ZM27.5 42.25C26.7438 42.25 26.0906 41.9865 25.5406 41.4594C25.0135 40.9094 24.75 40.2562 24.75 39.5H30.25C30.25 40.2562 29.975 40.9094 29.425 41.4594C28.8979 41.9865 28.2563 42.25 27.5 42.25ZM22 35.375H33V25.75C33 24.2375 32.4615 22.9427 31.3844 21.8656C30.3073 20.7885 29.0125 20.25 27.5 20.25C25.9875 20.25 24.6927 20.7885 23.6156 21.8656C22.5385 22.9427 22 24.2375 22 25.75V35.375Z" fill="#FFF6EB"/>
</svg>
