<svg width="26" height="23" viewBox="0 0 26 23" fill="none" xmlns="http://www.w3.org/2000/svg">
<path d="M20.9729 16.6575C22.0929 18.1197 22.6207 18.896 22.6207 19.7057C22.6207 21.3049 21.1883 22.0803 19.2585 22.0803C18.4078 22.0803 17.8587 22.0794 16.4709 21.4807C16.4709 21.4807 15.5718 20.7985 13.4675 20.8686C11.3436 20.7989 10.4438 21.4893 10.4438 21.4893C9.05608 22.0875 8.5266 22.0812 7.67704 22.0812C5.74725 22.0812 4.31368 21.3067 4.31368 19.7066C4.31368 18.8969 4.84316 18.1215 5.96264 16.6584C5.96264 16.6584 8.07892 13.7445 9.91273 12.3737C11.2378 11.3844 13.1698 11.388 13.1698 11.388L13.7658 11.388C13.7658 11.388 15.7822 11.3835 17.0244 12.3737C18.8015 13.7942 20.9729 16.658 20.9729 16.6575ZM8.7529 9.4394C10.7705 9.4394 12.4058 7.32618 12.4058 4.7197C12.4058 2.11322 10.7705 5.16371e-06 8.7529 4.19642e-06C6.73532 3.22912e-06 5.09999 2.11322 5.09999 4.7197C5.09999 7.32618 6.73532 9.43939 8.7529 9.4394ZM5.25213 14.0103C6.73914 13.4411 7.07831 11.4229 6.00899 9.50224C4.93967 7.58163 2.86757 6.48568 1.38056 7.05445C-0.106451 7.62322 -0.445077 9.64194 0.623694 11.5626C1.69301 13.4832 3.76512 14.5787 5.25213 14.0103ZM17.2458 9.4394C19.2634 9.4394 20.8993 7.32619 20.8993 4.71971C20.8993 2.11323 19.2634 9.23548e-06 17.2458 8.26819e-06C15.2282 7.3009e-06 13.5929 2.11322 13.5929 4.7197C13.5929 7.32618 15.2282 9.4394 17.2458 9.4394ZM24.6187 7.05401C23.1311 6.48479 21.0596 7.58073 19.9903 9.50179C18.9209 11.4229 19.2601 13.4411 20.7477 14.0103C22.2352 14.5791 24.3068 13.4832 25.3761 11.5626C26.4454 9.64195 26.1062 7.62323 24.6187 7.05401Z" fill="#843C06"/>
</svg>
