<svg width="19" height="19" viewBox="0 0 19 19" fill="none" xmlns="http://www.w3.org/2000/svg">
<path d="M14.8217 14.1979C15.6133 15.4442 15.9863 16.1059 15.9863 16.796C15.9863 18.1591 14.974 18.82 13.6102 18.82C13.009 18.82 12.6209 18.8192 11.6402 18.309C11.6402 18.309 11.0047 17.7275 9.51761 17.7872C8.01662 17.7279 7.38077 18.3163 7.38077 18.3163C6.40002 18.8261 6.02584 18.8207 5.42544 18.8207C4.06164 18.8207 3.04852 18.1606 3.04852 16.7968C3.04852 16.1066 3.42271 15.4457 4.21386 14.1987C4.21386 14.1987 5.70945 11.715 7.00543 10.5466C7.94186 9.70344 9.3072 9.70652 9.3072 9.70652H9.7284C9.7284 9.70652 11.1535 9.70267 12.0313 10.5466C13.2872 11.7574 14.8217 14.1983 14.8217 14.1979ZM6.18576 8.04561C7.61161 8.04561 8.76731 6.24442 8.76731 4.0228C8.76731 1.80119 7.61161 0 6.18576 0C4.75992 0 3.60422 1.80119 3.60422 4.0228C3.60422 6.24442 4.75992 8.04561 6.18576 8.04561ZM3.71173 11.9416C4.76262 11.4565 5.00231 9.7362 4.24662 8.09917C3.49092 6.46215 2.02654 5.52803 0.975654 6.01282C-0.0752306 6.49761 -0.314541 8.21825 0.440771 9.85527C1.19647 11.4923 2.66085 12.426 3.71173 11.9416ZM12.1878 8.04561C13.6136 8.04561 14.7697 6.24442 14.7697 4.0228C14.7697 1.80119 13.6136 0 12.1878 0C10.7619 0 9.60624 1.80119 9.60624 4.0228C9.60624 6.24442 10.7619 8.04561 12.1878 8.04561ZM17.3983 6.01243C16.347 5.52726 14.883 6.46138 14.1273 8.09879C13.3716 9.7362 13.6113 11.4565 14.6626 11.9416C15.7139 12.4264 17.1779 11.4923 17.9336 9.85527C18.6892 8.21825 18.4496 6.49761 17.3983 6.01243Z" fill="#F9F5F0"/>
</svg>
