<svg width="337" height="337" viewBox="0 0 337 337" fill="none" xmlns="http://www.w3.org/2000/svg">
<g filter="url(#filter0_d_748_3658)">
<rect x="50" y="50" width="237" height="237" rx="10" fill="#F9F5F0"/>
<rect x="50.5" y="50.5" width="236" height="236" rx="9.5" stroke="#843C06"/>
</g>
<path d="M258 253.248V83.7524C258 81.1288 255.871 79 253.248 79H83.7524C81.1288 79 79 81.1288 79 83.7524V253.248C79 255.872 81.1288 258 83.7524 258H253.248C255.871 257.999 258 255.871 258 253.248ZM248.495 248.496H88.5048V88.5048H248.495V248.496Z" fill="#843C06"/>
<path d="M102.021 180.531C104.495 188.489 110.907 197.764 120.861 197.888C121.39 198.089 122.595 198.822 123.494 199.373C127.835 202.018 134.389 206.013 146.073 206.199C149.97 206.257 159.729 219.632 165.565 235.154C166.606 237.929 168.888 240.061 171.73 240.918C172.63 241.184 173.552 241.32 174.466 241.32C176.446 241.32 178.404 240.701 180.047 239.51L231.069 202.491C235.163 199.521 236.215 193.865 233.461 189.624C232.097 187.507 228.226 180.889 226.803 175.846C224.971 169.325 220.479 162.038 217.812 158.075C217.935 154.093 217.967 147.134 217.137 139.298C216.312 131.453 218.261 126.121 219.829 121.834C220.052 121.223 220.265 120.643 220.454 120.095C221.673 116.613 221.221 112.988 219.207 110.156C217.203 107.33 213.963 105.712 210.312 105.712C206.364 105.712 201.866 107.695 197.49 111.078V107.702C197.49 99.283 191.875 94.8755 186.325 94.8724C186.325 94.8724 186.322 94.8724 186.318 94.8724C177.813 94.8724 172.062 103.146 164.047 127.334C161.569 128.896 157.061 131.412 151.16 133.295C142.369 136.098 139.926 142.301 138.75 145.282C138.681 145.457 138.602 145.656 138.526 145.843C137.776 146.052 136.068 146.376 132.7 146.376L132.081 146.373C129.151 146.341 126.639 146.3 124.484 146.261C121.82 146.216 119.684 146.183 117.977 146.183C112.86 146.183 102.212 146.183 101.619 158.58L101.599 158.937C101.353 163.641 101.562 176.432 101.586 177.873C101.606 178.776 101.752 179.671 102.021 180.531ZM111.094 159.435C111.259 156.294 110.964 155.687 117.976 155.687C121.036 155.687 125.487 155.804 131.976 155.874C132.219 155.877 132.461 155.877 132.699 155.877C153.098 155.877 143.02 145.865 154.046 142.346C165.201 138.785 172.082 133.329 172.082 133.329C179.393 110.607 184.04 104.374 186.314 104.374C187.437 104.374 187.981 105.892 187.981 107.699C187.981 113.158 187.981 130.956 187.981 130.956L191.304 133.804C197.597 121.031 206.898 115.214 210.301 115.214C211.39 115.214 211.879 115.807 211.477 116.956C209.815 121.702 206.492 129.058 207.678 140.296C208.866 151.53 208.154 160.86 208.154 160.86C208.154 160.86 215.508 170.829 217.646 178.421C219.781 186.014 225.474 194.798 225.474 194.798L174.458 231.817C174.458 231.817 161.407 196.936 146.217 196.694C131.028 196.459 127.706 188.39 121.062 188.39C114.419 188.39 111.094 177.71 111.094 177.71C111.094 177.71 110.857 163.946 111.094 159.435Z" fill="#843C06"/>
<defs>
<filter id="filter0_d_748_3658" x="0" y="0" width="337" height="337" filterUnits="userSpaceOnUse" color-interpolation-filters="sRGB">
<feFlood flood-opacity="0" result="BackgroundImageFix"/>
<feColorMatrix in="SourceAlpha" type="matrix" values="0 0 0 0 0 0 0 0 0 0 0 0 0 0 0 0 0 0 127 0" result="hardAlpha"/>
<feOffset/>
<feGaussianBlur stdDeviation="25"/>
<feComposite in2="hardAlpha" operator="out"/>
<feColorMatrix type="matrix" values="0 0 0 0 0 0 0 0 0 0 0 0 0 0 0 0 0 0 0.25 0"/>
<feBlend mode="normal" in2="BackgroundImageFix" result="effect1_dropShadow_748_3658"/>
<feBlend mode="normal" in="SourceGraphic" in2="effect1_dropShadow_748_3658" result="shape"/>
</filter>
</defs>
</svg>
